<mxfile host="app.diagrams.net" agent="Mozilla/5.0 (Windows NT 10.0; Win64; x64) AppleWebKit/537.36 (KHTML, like Gecko) Chrome/135.0.0.0 Safari/537.36 Edg/135.0.0.0" version="26.2.14">
  <diagram name="Page-1" id="z0WGdC7eLjD7BIHitwGQ">
    <mxGraphModel dx="2245" dy="1955" grid="1" gridSize="15" guides="1" tooltips="1" connect="0" arrows="1" fold="1" page="1" pageScale="1" pageWidth="827" pageHeight="1169" math="0" shadow="0">
      <root>
        <mxCell id="0" />
        <mxCell id="1" parent="0" />
        <mxCell id="JlEFWrsYI7XluvZegKxF-1" value="Usuario" style="swimlane;fontStyle=0;childLayout=stackLayout;horizontal=1;startSize=30;horizontalStack=0;resizeParent=1;resizeParentMax=0;resizeLast=0;collapsible=1;marginBottom=0;whiteSpace=wrap;html=1;" parent="1" vertex="1">
          <mxGeometry x="337" y="-74" width="140" height="150" as="geometry" />
        </mxCell>
        <mxCell id="JlEFWrsYI7XluvZegKxF-2" value="id: int" style="text;strokeColor=none;fillColor=none;align=left;verticalAlign=middle;spacingLeft=4;spacingRight=4;overflow=hidden;points=[[0,0.5],[1,0.5]];portConstraint=eastwest;rotatable=0;whiteSpace=wrap;html=1;" parent="JlEFWrsYI7XluvZegKxF-1" vertex="1">
          <mxGeometry y="30" width="140" height="30" as="geometry" />
        </mxCell>
        <mxCell id="JlEFWrsYI7XluvZegKxF-4" value="nombre: String" style="text;strokeColor=none;fillColor=none;align=left;verticalAlign=top;spacingLeft=4;spacingRight=4;overflow=hidden;points=[[0,0.5],[1,0.5]];portConstraint=eastwest;rotatable=0;whiteSpace=wrap;html=1;textShadow=1;" parent="JlEFWrsYI7XluvZegKxF-1" vertex="1">
          <mxGeometry y="60" width="140" height="30" as="geometry" />
        </mxCell>
        <mxCell id="JlEFWrsYI7XluvZegKxF-3" value="apellidos: String" style="text;strokeColor=none;fillColor=none;align=left;verticalAlign=middle;spacingLeft=4;spacingRight=4;overflow=hidden;points=[[0,0.5],[1,0.5]];portConstraint=eastwest;rotatable=0;whiteSpace=wrap;html=1;" parent="JlEFWrsYI7XluvZegKxF-1" vertex="1">
          <mxGeometry y="90" width="140" height="30" as="geometry" />
        </mxCell>
        <mxCell id="JlEFWrsYI7XluvZegKxF-5" value="email: String" style="text;strokeColor=none;fillColor=none;align=left;verticalAlign=middle;spacingLeft=4;spacingRight=4;overflow=hidden;points=[[0,0.5],[1,0.5]];portConstraint=eastwest;rotatable=0;whiteSpace=wrap;html=1;" parent="JlEFWrsYI7XluvZegKxF-1" vertex="1">
          <mxGeometry y="120" width="140" height="30" as="geometry" />
        </mxCell>
        <mxCell id="JlEFWrsYI7XluvZegKxF-6" value="+ consultarPerfil(): void" style="rounded=0;whiteSpace=wrap;html=1;" parent="1" vertex="1">
          <mxGeometry x="337" y="76" width="140" height="30" as="geometry" />
        </mxCell>
        <mxCell id="JlEFWrsYI7XluvZegKxF-7" value="+ editarPerfil(): void" style="rounded=0;whiteSpace=wrap;html=1;" parent="1" vertex="1">
          <mxGeometry x="337" y="106" width="140" height="30" as="geometry" />
        </mxCell>
        <mxCell id="RcJC1wFQKb6KEYNFSSF7-1" style="edgeStyle=orthogonalEdgeStyle;rounded=0;orthogonalLoop=1;jettySize=auto;html=1;exitX=0.5;exitY=0;exitDx=0;exitDy=0;entryX=0.25;entryY=1;entryDx=0;entryDy=0;" edge="1" parent="1" source="JlEFWrsYI7XluvZegKxF-8" target="JlEFWrsYI7XluvZegKxF-7">
          <mxGeometry relative="1" as="geometry" />
        </mxCell>
        <mxCell id="JlEFWrsYI7XluvZegKxF-8" value="Cliente" style="swimlane;fontStyle=0;childLayout=stackLayout;horizontal=1;startSize=30;horizontalStack=0;resizeParent=1;resizeParentMax=0;resizeLast=0;collapsible=1;marginBottom=0;whiteSpace=wrap;html=1;" parent="1" vertex="1">
          <mxGeometry x="161" y="291" width="273" height="150" as="geometry" />
        </mxCell>
        <mxCell id="JlEFWrsYI7XluvZegKxF-9" value="id: int" style="text;strokeColor=none;fillColor=none;align=left;verticalAlign=middle;spacingLeft=4;spacingRight=4;overflow=hidden;points=[[0,0.5],[1,0.5]];portConstraint=eastwest;rotatable=0;whiteSpace=wrap;html=1;" parent="JlEFWrsYI7XluvZegKxF-8" vertex="1">
          <mxGeometry y="30" width="273" height="30" as="geometry" />
        </mxCell>
        <mxCell id="JlEFWrsYI7XluvZegKxF-10" value="nombre: String" style="text;strokeColor=none;fillColor=none;align=left;verticalAlign=middle;spacingLeft=4;spacingRight=4;overflow=hidden;points=[[0,0.5],[1,0.5]];portConstraint=eastwest;rotatable=0;whiteSpace=wrap;html=1;" parent="JlEFWrsYI7XluvZegKxF-8" vertex="1">
          <mxGeometry y="60" width="273" height="30" as="geometry" />
        </mxCell>
        <mxCell id="JlEFWrsYI7XluvZegKxF-11" value="apellidos: String" style="text;strokeColor=none;fillColor=none;align=left;verticalAlign=middle;spacingLeft=4;spacingRight=4;overflow=hidden;points=[[0,0.5],[1,0.5]];portConstraint=eastwest;rotatable=0;whiteSpace=wrap;html=1;" parent="JlEFWrsYI7XluvZegKxF-8" vertex="1">
          <mxGeometry y="90" width="273" height="30" as="geometry" />
        </mxCell>
        <mxCell id="JlEFWrsYI7XluvZegKxF-13" value="email:String" style="text;strokeColor=none;fillColor=none;align=left;verticalAlign=middle;spacingLeft=4;spacingRight=4;overflow=hidden;points=[[0,0.5],[1,0.5]];portConstraint=eastwest;rotatable=0;whiteSpace=wrap;html=1;" parent="JlEFWrsYI7XluvZegKxF-8" vertex="1">
          <mxGeometry y="120" width="273" height="30" as="geometry" />
        </mxCell>
        <mxCell id="JlEFWrsYI7XluvZegKxF-14" value="+ consultarDisponibilidad(pista: Pista): List&amp;lt;Horario&amp;gt;" style="rounded=0;whiteSpace=wrap;html=1;" parent="1" vertex="1">
          <mxGeometry x="160" y="441" width="274" height="34" as="geometry" />
        </mxCell>
        <mxCell id="JlEFWrsYI7XluvZegKxF-16" value="&#xa;+ realizarReserva(reserva: Reserva): void&#xa;&#xa;" style="rounded=0;whiteSpace=wrap;html=1;" parent="1" vertex="1">
          <mxGeometry x="161" y="475" width="273" height="37" as="geometry" />
        </mxCell>
        <mxCell id="JlEFWrsYI7XluvZegKxF-17" value="&#xa;+ cancelarReserva(reserva: Reserva): void&#xa;&#xa;" style="rounded=0;whiteSpace=wrap;html=1;" parent="1" vertex="1">
          <mxGeometry x="161" y="512" width="273" height="31" as="geometry" />
        </mxCell>
        <mxCell id="JlEFWrsYI7XluvZegKxF-18" value="&#xa;+ recibirNotificacion(mensaje: String): void&#xa;&#xa;" style="rounded=0;whiteSpace=wrap;html=1;" parent="1" vertex="1">
          <mxGeometry x="161" y="543" width="274" height="42" as="geometry" />
        </mxCell>
        <mxCell id="JlEFWrsYI7XluvZegKxF-19" value="Administrador" style="swimlane;fontStyle=0;childLayout=stackLayout;horizontal=1;startSize=30;horizontalStack=0;resizeParent=1;resizeParentMax=0;resizeLast=0;collapsible=1;marginBottom=0;whiteSpace=wrap;html=1;" parent="1" vertex="1">
          <mxGeometry x="596" y="249" width="422" height="150" as="geometry" />
        </mxCell>
        <mxCell id="JlEFWrsYI7XluvZegKxF-20" value="id: int" style="text;strokeColor=none;fillColor=none;align=left;verticalAlign=middle;spacingLeft=4;spacingRight=4;overflow=hidden;points=[[0,0.5],[1,0.5]];portConstraint=eastwest;rotatable=0;whiteSpace=wrap;html=1;" parent="JlEFWrsYI7XluvZegKxF-19" vertex="1">
          <mxGeometry y="30" width="422" height="30" as="geometry" />
        </mxCell>
        <mxCell id="JlEFWrsYI7XluvZegKxF-21" value="nombre: String" style="text;strokeColor=none;fillColor=none;align=left;verticalAlign=middle;spacingLeft=4;spacingRight=4;overflow=hidden;points=[[0,0.5],[1,0.5]];portConstraint=eastwest;rotatable=0;whiteSpace=wrap;html=1;" parent="JlEFWrsYI7XluvZegKxF-19" vertex="1">
          <mxGeometry y="60" width="422" height="30" as="geometry" />
        </mxCell>
        <mxCell id="JlEFWrsYI7XluvZegKxF-22" value="apellidos: String" style="text;strokeColor=none;fillColor=none;align=left;verticalAlign=middle;spacingLeft=4;spacingRight=4;overflow=hidden;points=[[0,0.5],[1,0.5]];portConstraint=eastwest;rotatable=0;whiteSpace=wrap;html=1;" parent="JlEFWrsYI7XluvZegKxF-19" vertex="1">
          <mxGeometry y="90" width="422" height="30" as="geometry" />
        </mxCell>
        <mxCell id="JlEFWrsYI7XluvZegKxF-23" value="email: String" style="text;strokeColor=none;fillColor=none;align=left;verticalAlign=middle;spacingLeft=4;spacingRight=4;overflow=hidden;points=[[0,0.5],[1,0.5]];portConstraint=eastwest;rotatable=0;whiteSpace=wrap;html=1;" parent="JlEFWrsYI7XluvZegKxF-19" vertex="1">
          <mxGeometry y="120" width="422" height="30" as="geometry" />
        </mxCell>
        <mxCell id="JlEFWrsYI7XluvZegKxF-25" value="&#xa;+ configurarCierre(pista: Pista, fecha: Date, motivo: String): void&#xa;&#xa;" style="rounded=0;whiteSpace=wrap;html=1;" parent="1" vertex="1">
          <mxGeometry x="596" y="396" width="423" height="36" as="geometry" />
        </mxCell>
        <mxCell id="JlEFWrsYI7XluvZegKxF-26" value="&#xa;+ darDeBaja(cliente: Cliente): void&#xa;&#xa;" style="rounded=0;whiteSpace=wrap;html=1;" parent="1" vertex="1">
          <mxGeometry x="596" y="432" width="424" height="35" as="geometry" />
        </mxCell>
        <mxCell id="JlEFWrsYI7XluvZegKxF-27" value="&#xa;+ gestionarHorarios(pista: Pista, horario: Horario): void&#xa;&#xa;" style="rounded=0;whiteSpace=wrap;html=1;" parent="1" vertex="1">
          <mxGeometry x="596" y="469" width="424" height="38" as="geometry" />
        </mxCell>
        <mxCell id="JlEFWrsYI7XluvZegKxF-28" value="&#xa;+ enviarMensaje(cliente: Cliente, mensaje: String): void&#xa;&#xa;" style="rounded=0;whiteSpace=wrap;html=1;" parent="1" vertex="1">
          <mxGeometry x="596" y="507" width="425" height="40" as="geometry" />
        </mxCell>
        <mxCell id="JlEFWrsYI7XluvZegKxF-29" value="Pista" style="swimlane;fontStyle=0;childLayout=stackLayout;horizontal=1;startSize=30;horizontalStack=0;resizeParent=1;resizeParentMax=0;resizeLast=0;collapsible=1;marginBottom=0;whiteSpace=wrap;html=1;" parent="1" vertex="1">
          <mxGeometry x="518" y="788" width="246" height="180" as="geometry" />
        </mxCell>
        <mxCell id="JlEFWrsYI7XluvZegKxF-30" value=" id: int" style="text;strokeColor=none;fillColor=none;align=left;verticalAlign=middle;spacingLeft=4;spacingRight=4;overflow=hidden;points=[[0,0.5],[1,0.5]];portConstraint=eastwest;rotatable=0;whiteSpace=wrap;html=1;" parent="JlEFWrsYI7XluvZegKxF-29" vertex="1">
          <mxGeometry y="30" width="246" height="30" as="geometry" />
        </mxCell>
        <mxCell id="JlEFWrsYI7XluvZegKxF-31" value=" tipo: String" style="text;strokeColor=none;fillColor=none;align=left;verticalAlign=middle;spacingLeft=4;spacingRight=4;overflow=hidden;points=[[0,0.5],[1,0.5]];portConstraint=eastwest;rotatable=0;whiteSpace=wrap;html=1;" parent="JlEFWrsYI7XluvZegKxF-29" vertex="1">
          <mxGeometry y="60" width="246" height="30" as="geometry" />
        </mxCell>
        <mxCell id="JlEFWrsYI7XluvZegKxF-32" value="horarioApertura: Time" style="text;strokeColor=none;fillColor=none;align=left;verticalAlign=middle;spacingLeft=4;spacingRight=4;overflow=hidden;points=[[0,0.5],[1,0.5]];portConstraint=eastwest;rotatable=0;whiteSpace=wrap;html=1;" parent="JlEFWrsYI7XluvZegKxF-29" vertex="1">
          <mxGeometry y="90" width="246" height="30" as="geometry" />
        </mxCell>
        <mxCell id="JlEFWrsYI7XluvZegKxF-33" value="horarioCierre: Time" style="text;strokeColor=none;fillColor=none;align=left;verticalAlign=middle;spacingLeft=4;spacingRight=4;overflow=hidden;points=[[0,0.5],[1,0.5]];portConstraint=eastwest;rotatable=0;whiteSpace=wrap;html=1;" parent="JlEFWrsYI7XluvZegKxF-29" vertex="1">
          <mxGeometry y="120" width="246" height="30" as="geometry" />
        </mxCell>
        <mxCell id="JlEFWrsYI7XluvZegKxF-34" value="estaBloqueada: boolean" style="text;strokeColor=none;fillColor=none;align=left;verticalAlign=middle;spacingLeft=4;spacingRight=4;overflow=hidden;points=[[0,0.5],[1,0.5]];portConstraint=eastwest;rotatable=0;whiteSpace=wrap;html=1;" parent="JlEFWrsYI7XluvZegKxF-29" vertex="1">
          <mxGeometry y="150" width="246" height="30" as="geometry" />
        </mxCell>
        <mxCell id="JlEFWrsYI7XluvZegKxF-35" value="&#xa;+ bloquearPista(motivo: String): void&#xa;&#xa;" style="rounded=0;whiteSpace=wrap;html=1;" parent="1" vertex="1">
          <mxGeometry x="518" y="968" width="247" height="40" as="geometry" />
        </mxCell>
        <mxCell id="JlEFWrsYI7XluvZegKxF-36" value="&#xa;+ desbloquearPista(): void&#xa;&#xa;" style="rounded=0;whiteSpace=wrap;html=1;" parent="1" vertex="1">
          <mxGeometry x="518" y="1008" width="248" height="39" as="geometry" />
        </mxCell>
        <mxCell id="JlEFWrsYI7XluvZegKxF-37" value="Reserva" style="swimlane;fontStyle=0;childLayout=stackLayout;horizontal=1;startSize=30;horizontalStack=0;resizeParent=1;resizeParentMax=0;resizeLast=0;collapsible=1;marginBottom=0;whiteSpace=wrap;html=1;" parent="1" vertex="1">
          <mxGeometry x="-68" y="721" width="226" height="180" as="geometry" />
        </mxCell>
        <mxCell id="JlEFWrsYI7XluvZegKxF-38" value="id: int" style="text;strokeColor=none;fillColor=none;align=left;verticalAlign=middle;spacingLeft=4;spacingRight=4;overflow=hidden;points=[[0,0.5],[1,0.5]];portConstraint=eastwest;rotatable=0;whiteSpace=wrap;html=1;" parent="JlEFWrsYI7XluvZegKxF-37" vertex="1">
          <mxGeometry y="30" width="226" height="30" as="geometry" />
        </mxCell>
        <mxCell id="JlEFWrsYI7XluvZegKxF-39" value="fecha: Date" style="text;strokeColor=none;fillColor=none;align=left;verticalAlign=middle;spacingLeft=4;spacingRight=4;overflow=hidden;points=[[0,0.5],[1,0.5]];portConstraint=eastwest;rotatable=0;whiteSpace=wrap;html=1;" parent="JlEFWrsYI7XluvZegKxF-37" vertex="1">
          <mxGeometry y="60" width="226" height="30" as="geometry" />
        </mxCell>
        <mxCell id="JlEFWrsYI7XluvZegKxF-40" value="horaInicio: Time" style="text;strokeColor=none;fillColor=none;align=left;verticalAlign=middle;spacingLeft=4;spacingRight=4;overflow=hidden;points=[[0,0.5],[1,0.5]];portConstraint=eastwest;rotatable=0;whiteSpace=wrap;html=1;" parent="JlEFWrsYI7XluvZegKxF-37" vertex="1">
          <mxGeometry y="90" width="226" height="30" as="geometry" />
        </mxCell>
        <mxCell id="JlEFWrsYI7XluvZegKxF-41" value="duracion: int" style="text;strokeColor=none;fillColor=none;align=left;verticalAlign=middle;spacingLeft=4;spacingRight=4;overflow=hidden;points=[[0,0.5],[1,0.5]];portConstraint=eastwest;rotatable=0;whiteSpace=wrap;html=1;" parent="JlEFWrsYI7XluvZegKxF-37" vertex="1">
          <mxGeometry y="120" width="226" height="30" as="geometry" />
        </mxCell>
        <mxCell id="JlEFWrsYI7XluvZegKxF-42" value="estado: String" style="text;strokeColor=none;fillColor=none;align=left;verticalAlign=middle;spacingLeft=4;spacingRight=4;overflow=hidden;points=[[0,0.5],[1,0.5]];portConstraint=eastwest;rotatable=0;whiteSpace=wrap;html=1;" parent="JlEFWrsYI7XluvZegKxF-37" vertex="1">
          <mxGeometry y="150" width="226" height="30" as="geometry" />
        </mxCell>
        <mxCell id="JlEFWrsYI7XluvZegKxF-43" value="&#xa;+ confirmar(): void&#xa;&#xa;" style="rounded=0;whiteSpace=wrap;html=1;" parent="1" vertex="1">
          <mxGeometry x="-68" y="902" width="227" height="30" as="geometry" />
        </mxCell>
        <mxCell id="JlEFWrsYI7XluvZegKxF-44" value="&#xa;+ cancelar(): void&#xa;&#xa;" style="rounded=0;whiteSpace=wrap;html=1;" parent="1" vertex="1">
          <mxGeometry x="-68" y="932" width="228" height="29" as="geometry" />
        </mxCell>
        <mxCell id="JlEFWrsYI7XluvZegKxF-45" value="&#xa;+ esSolapada(otra: Reserva): boolean&#xa;&#xa;" style="rounded=0;whiteSpace=wrap;html=1;" parent="1" vertex="1">
          <mxGeometry x="-68" y="961" width="228" height="29" as="geometry" />
        </mxCell>
        <mxCell id="JlEFWrsYI7XluvZegKxF-46" value="Notificacion" style="swimlane;fontStyle=0;childLayout=stackLayout;horizontal=1;startSize=30;horizontalStack=0;resizeParent=1;resizeParentMax=0;resizeLast=0;collapsible=1;marginBottom=0;whiteSpace=wrap;html=1;" parent="1" vertex="1">
          <mxGeometry x="165" y="1175" width="140" height="120" as="geometry" />
        </mxCell>
        <mxCell id="JlEFWrsYI7XluvZegKxF-47" value="mensaje: String" style="text;strokeColor=none;fillColor=none;align=left;verticalAlign=middle;spacingLeft=4;spacingRight=4;overflow=hidden;points=[[0,0.5],[1,0.5]];portConstraint=eastwest;rotatable=0;whiteSpace=wrap;html=1;" parent="JlEFWrsYI7XluvZegKxF-46" vertex="1">
          <mxGeometry y="30" width="140" height="30" as="geometry" />
        </mxCell>
        <mxCell id="JlEFWrsYI7XluvZegKxF-48" value="fechaEnvio: Date" style="text;strokeColor=none;fillColor=none;align=left;verticalAlign=middle;spacingLeft=4;spacingRight=4;overflow=hidden;points=[[0,0.5],[1,0.5]];portConstraint=eastwest;rotatable=0;whiteSpace=wrap;html=1;" parent="JlEFWrsYI7XluvZegKxF-46" vertex="1">
          <mxGeometry y="60" width="140" height="30" as="geometry" />
        </mxCell>
        <mxCell id="JlEFWrsYI7XluvZegKxF-49" value="destinatario: Cliente" style="text;strokeColor=none;fillColor=none;align=left;verticalAlign=middle;spacingLeft=4;spacingRight=4;overflow=hidden;points=[[0,0.5],[1,0.5]];portConstraint=eastwest;rotatable=0;whiteSpace=wrap;html=1;" parent="JlEFWrsYI7XluvZegKxF-46" vertex="1">
          <mxGeometry y="90" width="140" height="30" as="geometry" />
        </mxCell>
        <mxCell id="JlEFWrsYI7XluvZegKxF-50" value="&#xa;+ enviar(): void&#xa;&#xa;" style="rounded=0;whiteSpace=wrap;html=1;" parent="1" vertex="1">
          <mxGeometry x="165" y="1295" width="140" height="25" as="geometry" />
        </mxCell>
        <mxCell id="JlEFWrsYI7XluvZegKxF-51" value="&lt;div&gt;&lt;br&gt;&lt;/div&gt;&lt;div&gt;+ mostrarDetalla(): String&lt;/div&gt;" style="rounded=0;whiteSpace=wrap;html=1;" parent="1" vertex="1">
          <mxGeometry x="165" y="1320" width="142" height="29" as="geometry" />
        </mxCell>
        <mxCell id="JlEFWrsYI7XluvZegKxF-53" style="edgeStyle=orthogonalEdgeStyle;rounded=0;orthogonalLoop=1;jettySize=auto;html=1;exitX=0.5;exitY=1;exitDx=0;exitDy=0;entryX=0.545;entryY=0.014;entryDx=0;entryDy=0;entryPerimeter=0;" parent="1" source="JlEFWrsYI7XluvZegKxF-18" target="JlEFWrsYI7XluvZegKxF-37" edge="1">
          <mxGeometry relative="1" as="geometry" />
        </mxCell>
        <mxCell id="JlEFWrsYI7XluvZegKxF-55" value="1" style="text;html=1;align=center;verticalAlign=middle;resizable=0;points=[];autosize=1;strokeColor=none;fillColor=none;" parent="1" vertex="1">
          <mxGeometry x="241" y="588" width="25" height="26" as="geometry" />
        </mxCell>
        <mxCell id="JlEFWrsYI7XluvZegKxF-56" value="n" style="text;html=1;align=center;verticalAlign=middle;resizable=0;points=[];autosize=1;strokeColor=none;fillColor=none;" parent="1" vertex="1">
          <mxGeometry x="25" y="682" width="25" height="26" as="geometry" />
        </mxCell>
        <mxCell id="JlEFWrsYI7XluvZegKxF-58" style="edgeStyle=orthogonalEdgeStyle;rounded=0;orthogonalLoop=1;jettySize=auto;html=1;entryX=-0.006;entryY=0.267;entryDx=0;entryDy=0;entryPerimeter=0;" parent="1" source="JlEFWrsYI7XluvZegKxF-41" target="JlEFWrsYI7XluvZegKxF-31" edge="1">
          <mxGeometry relative="1" as="geometry" />
        </mxCell>
        <mxCell id="JlEFWrsYI7XluvZegKxF-59" value="n" style="text;html=1;align=center;verticalAlign=middle;resizable=0;points=[];autosize=1;strokeColor=none;fillColor=none;" parent="1" vertex="1">
          <mxGeometry x="171" y="821" width="25" height="26" as="geometry" />
        </mxCell>
        <mxCell id="JlEFWrsYI7XluvZegKxF-60" value="1" style="text;html=1;align=center;verticalAlign=middle;resizable=0;points=[];autosize=1;strokeColor=none;fillColor=none;" parent="1" vertex="1">
          <mxGeometry x="472" y="819" width="25" height="26" as="geometry" />
        </mxCell>
        <mxCell id="JlEFWrsYI7XluvZegKxF-61" style="edgeStyle=orthogonalEdgeStyle;rounded=0;orthogonalLoop=1;jettySize=auto;html=1;entryX=0.538;entryY=0.017;entryDx=0;entryDy=0;entryPerimeter=0;" parent="1" source="JlEFWrsYI7XluvZegKxF-28" target="JlEFWrsYI7XluvZegKxF-29" edge="1">
          <mxGeometry relative="1" as="geometry" />
        </mxCell>
        <mxCell id="JlEFWrsYI7XluvZegKxF-62" value="1" style="text;html=1;align=center;verticalAlign=middle;resizable=0;points=[];autosize=1;strokeColor=none;fillColor=none;" parent="1" vertex="1">
          <mxGeometry x="767" y="558" width="25" height="26" as="geometry" />
        </mxCell>
        <mxCell id="JlEFWrsYI7XluvZegKxF-63" value="n" style="text;html=1;align=center;verticalAlign=middle;resizable=0;points=[];autosize=1;strokeColor=none;fillColor=none;" parent="1" vertex="1">
          <mxGeometry x="655" y="752" width="25" height="26" as="geometry" />
        </mxCell>
        <mxCell id="JlEFWrsYI7XluvZegKxF-64" style="edgeStyle=orthogonalEdgeStyle;rounded=0;orthogonalLoop=1;jettySize=auto;html=1;entryX=0.901;entryY=0.786;entryDx=0;entryDy=0;entryPerimeter=0;" parent="1" source="JlEFWrsYI7XluvZegKxF-46" target="JlEFWrsYI7XluvZegKxF-18" edge="1">
          <mxGeometry relative="1" as="geometry" />
        </mxCell>
        <mxCell id="JlEFWrsYI7XluvZegKxF-65" value="1" style="text;html=1;align=center;verticalAlign=middle;resizable=0;points=[];autosize=1;strokeColor=none;fillColor=none;" parent="1" vertex="1">
          <mxGeometry x="255" y="1134" width="25" height="26" as="geometry" />
        </mxCell>
        <mxCell id="JlEFWrsYI7XluvZegKxF-66" value="1" style="text;html=1;align=center;verticalAlign=middle;resizable=0;points=[];autosize=1;strokeColor=none;fillColor=none;" parent="1" vertex="1">
          <mxGeometry x="410" y="582" width="25" height="26" as="geometry" />
        </mxCell>
        <mxCell id="RcJC1wFQKb6KEYNFSSF7-2" style="edgeStyle=orthogonalEdgeStyle;rounded=0;orthogonalLoop=1;jettySize=auto;html=1;exitX=0.25;exitY=0;exitDx=0;exitDy=0;entryX=0.864;entryY=0.967;entryDx=0;entryDy=0;entryPerimeter=0;" edge="1" parent="1" source="JlEFWrsYI7XluvZegKxF-19" target="JlEFWrsYI7XluvZegKxF-7">
          <mxGeometry relative="1" as="geometry" />
        </mxCell>
      </root>
    </mxGraphModel>
  </diagram>
</mxfile>
